# xmcd
#
# Track frame offsets: 
#        150
#        18023
#        38868
#        56763
#        71918
#        95675
#        109853
#        128930
#        143058
#        160190
#        172915
#
# Disc length: 2558 seconds
#
# Revision: 0
# Processed by: cddbd v1.5.2PL0 Copyright (c) Steve Scherf et al.
# Submitted via: ExactAudioCopy v0.95b3
#
DISCID=9409fc0b
DTITLE=Walt Mills - Revival's In the Land Today
DYEAR=1991
DGENRE=Country
TTITLE0=Revival's In the Land Today
TTITLE1=The Altar
TTITLE2=Ain't Got Time For You Devil
TTITLE3=In the Garden
TTITLE4=Love Lifted Me
TTITLE5=Heaven Is A Real Place
TTITLE6=What A Healing Jesus
TTITLE7=Joy In My Heart
TTITLE8=Walking the Sea
TTITLE9=He's Still In the Fire
TTITLE10=I'll Praise You
EXTD=
EXTT0=
EXTT1=
EXTT2=
EXTT3=
EXTT4=
EXTT5=
EXTT6=
EXTT7=
EXTT8=
EXTT9=
EXTT10=
PLAYORDER=
